<?xml version="1.0" standalone="no"?>
<!DOCTYPE svg PUBLIC "-//W3C//DTD SVG 20010904//EN"
 "http://www.w3.org/TR/2001/REC-SVG-20010904/DTD/svg10.dtd">
<svg version="1.0" xmlns="http://www.w3.org/2000/svg"
 width="824.000000pt" height="926.000000pt" viewBox="0 0 824.000000 926.000000"
 preserveAspectRatio="xMidYMid meet">

<g transform="translate(0.000000,926.000000) scale(0.100000,-0.100000)"
fill="#000000" stroke="none">
<path d="M0 4630 l0 -4630 1045 0 1045 0 -43 38 c-85 77 -208 161 -245 167
-74 12 -83 16 -120 53 -21 20 -64 57 -95 81 -52 40 -66 45 -130 51 -116 12
-228 39 -275 66 -45 27 -133 146 -146 198 -3 14 -20 49 -37 78 -17 29 -51 109
-75 178 -42 119 -44 127 -32 172 6 27 15 48 19 48 3 0 21 37 39 83 17 45 40
100 49 122 16 36 28 73 31 100 1 6 5 15 10 20 5 6 34 75 65 155 51 132 196
437 220 465 12 13 43 68 111 200 43 83 55 99 73 97 22 -3 29 12 11 23 -18 11
-11 23 10 18 22 -6 28 15 10 33 -11 11 22 78 83 169 14 22 32 56 38 75 7 19
23 51 36 70 12 19 23 38 23 42 0 5 29 52 65 107 36 54 65 101 65 105 0 4 15
26 33 49 18 23 39 53 45 67 17 35 180 280 193 290 21 17 119 177 114 188 -2 7
-1 11 4 8 4 -3 30 25 57 61 27 37 67 88 89 114 22 26 51 63 65 83 30 44 104
143 128 171 9 11 50 61 92 110 41 50 84 97 95 105 11 8 50 44 86 80 63 63 317
295 389 356 19 16 62 56 95 89 111 111 197 179 395 310 180 119 334 206 435
245 40 15 161 49 185 52 14 2 29 12 34 24 9 19 11 19 26 5 62 -58 136 -109
168 -115 38 -7 72 7 72 29 0 8 5 15 10 15 6 0 10 -10 10 -23 0 -27 17 -47 42
-47 13 0 22 15 33 58 9 31 19 64 21 72 11 34 54 250 58 291 2 24 9 74 15 111
6 37 10 71 9 75 -1 4 2 46 6 93 9 107 9 97 6 390 -1 146 3 267 9 299 6 29 11
80 11 113 0 37 4 57 10 53 6 -3 10 -17 10 -31 0 -13 4 -24 10 -24 5 0 8 -13 7
-30 -1 -16 -5 -30 -8 -30 -3 0 -6 -6 -7 -12 -1 -7 -6 -40 -10 -73 -6 -42 -5
-79 5 -125 22 -104 51 -240 68 -315 30 -136 37 -170 40 -197 2 -14 9 -44 16
-65 7 -21 13 -47 15 -58 1 -11 11 -57 23 -102 25 -96 26 -168 6 -240 -45 -159
-45 -157 -32 -165 18 -11 25 0 52 92 45 147 51 240 20 313 -5 13 -3 16 8 11
16 -6 64 16 100 45 12 10 17 10 17 2 0 -7 9 -9 24 -5 40 10 48 -20 37 -138
-11 -109 -27 -162 -67 -215 -14 -18 -20 -33 -14 -33 12 0 62 36 60 42 -2 4 2
17 24 88 10 30 16 78 15 105 -1 28 -1 61 1 75 1 23 3 22 15 -10 19 -48 18
-136 -1 -201 -9 -30 -17 -58 -18 -64 -9 -38 -127 -195 -149 -195 -15 -1 -62
-39 -55 -45 3 -3 16 4 31 15 14 11 28 20 32 20 16 0 93 88 136 155 26 39 50
88 54 110 5 22 10 47 12 55 12 52 7 129 -12 185 -10 29 40 -30 67 -80 29 -53
29 -182 0 -270 -24 -75 -74 -172 -105 -205 -46 -50 -117 -110 -129 -110 -7 0
-3 8 10 18 20 16 21 19 8 37 -15 20 -15 20 -38 -3 -14 -14 -23 -34 -23 -54 0
-20 -5 -32 -15 -34 -24 -3 -77 -34 -59 -34 8 0 19 4 25 9 15 15 57 16 82 2 13
-7 30 -10 37 -7 8 3 15 0 17 -6 4 -10 101 -13 117 -4 4 3 27 7 51 11 72 10
121 25 180 54 274 137 349 171 363 165 10 -3 17 -1 17 5 0 13 62 81 74 81 5 0
6 -16 3 -37 -11 -64 80 -241 169 -330 8 -8 19 -23 25 -34 5 -11 14 -17 18 -15
13 8 31 -42 31 -86 0 -53 -24 -145 -55 -205 -83 -165 -73 -293 41 -532 25 -53
50 -105 56 -117 5 -12 19 -33 31 -47 12 -14 40 -56 62 -92 111 -183 210 -305
236 -290 8 5 10 4 5 -4 -10 -15 77 -98 154 -148 110 -72 331 -168 443 -192 61
-13 132 -53 132 -74 0 -7 6 -23 14 -37 8 -13 13 -42 13 -63 -2 -45 -42 -168
-52 -162 -8 5 -35 -56 -45 -98 -5 -26 3 -63 27 -127 6 -14 9 -26 9 -27 0 -2 8
-19 19 -38 11 -20 20 -41 20 -48 0 -7 15 -37 34 -69 19 -31 32 -59 29 -62 -4
-3 -2 -6 3 -6 5 0 11 -11 12 -26 1 -14 -2 -22 -8 -19 -5 3 -17 -4 -27 -16 -88
-109 -231 -130 -443 -64 -133 42 -377 202 -502 331 -224 231 -249 259 -262
302 -4 12 -11 22 -16 22 -5 0 -16 13 -24 29 -15 28 -15 29 14 35 16 3 35 4 42
1 7 -2 36 -6 63 -8 28 -3 55 -6 60 -7 24 -5 45 1 45 14 0 17 -76 25 -190 20
-176 -8 -264 -43 -348 -137 -72 -80 -65 -94 9 -19 67 67 145 112 195 112 28 0
38 -7 65 -47 24 -36 32 -58 31 -88 0 -35 -24 -160 -54 -280 -5 -22 -12 -55
-15 -72 -3 -18 -9 -33 -14 -33 -5 0 -56 -30 -115 -66 l-106 -65 7 63 c8 72 -3
109 -43 152 -25 26 -168 129 -184 132 -5 1 -12 2 -17 3 -5 0 -28 17 -51 36
-23 19 -48 35 -55 35 -7 0 -18 7 -25 16 -8 8 -30 23 -49 33 -20 10 -76 39
-125 65 -50 25 -97 46 -106 46 -8 0 -24 6 -35 14 -11 7 -45 21 -75 31 -30 10
-60 21 -65 26 -6 4 -38 13 -70 18 -33 6 -80 16 -105 21 -67 16 -187 32 -260
35 -315 14 -399 28 -515 88 -33 16 -73 37 -90 45 -80 41 -175 127 -228 207
-81 123 -150 425 -128 562 16 102 20 121 36 166 8 23 15 49 15 58 0 9 7 30 15
45 8 16 18 46 22 68 8 52 115 257 169 327 24 30 44 57 44 60 0 3 -10 5 -21 6
-25 2 -79 -23 -79 -36 0 -5 -13 -22 -28 -37 -34 -34 -180 -215 -204 -252 -32
-48 -19 -58 15 -12 17 25 41 55 52 66 29 30 55 63 55 70 0 10 124 135 145 146
19 10 19 10 -1 -13 -31 -36 -90 -131 -99 -159 -4 -13 -24 -56 -44 -95 -38 -74
-41 -83 -49 -127 -2 -16 -8 -28 -12 -28 -8 0 -44 -110 -70 -208 -23 -91 -8
-336 26 -418 8 -19 15 -37 15 -41 3 -17 10 -36 38 -108 7 -16 28 -53 47 -81
l36 -51 -40 -114 c-22 -63 -49 -159 -61 -214 -13 -55 -31 -127 -41 -160 -11
-33 -24 -89 -30 -125 -7 -36 -18 -83 -26 -105 -7 -22 -16 -53 -18 -70 -3 -16
-10 -48 -15 -70 -15 -56 -14 -188 0 -179 7 4 9 0 6 -12 -3 -11 -8 -68 -12
-129 -7 -113 -22 -253 -50 -455 -20 -152 -38 -728 -24 -806 21 -122 51 -804
38 -841 l-9 -23 2375 0 2375 0 0 4630 0 4630 -4120 0 -4120 0 0 -4630z m7175
4115 c-30 -58 -51 -105 -47 -105 4 0 2 -4 -3 -8 -11 -8 -49 -64 -48 -72 0 -13
-32 -79 -69 -139 -61 -99 -75 -125 -148 -266 -38 -71 -82 -156 -100 -187 -17
-32 -28 -63 -24 -69 4 -7 3 -9 -2 -6 -10 6 -84 -128 -84 -150 0 -7 -4 -13 -10
-13 -5 0 -10 -9 -10 -20 0 -11 -5 -20 -12 -20 -6 0 -8 -3 -5 -7 4 -3 0 -11 -7
-17 -20 -16 -97 -166 -90 -177 3 -5 2 -9 -3 -9 -13 0 -46 -78 -40 -94 4 -9 1
-13 -6 -10 -7 2 -24 -17 -39 -48 -38 -75 -169 -321 -208 -393 -18 -33 -42 -78
-53 -100 -11 -22 -25 -43 -31 -47 -6 -4 -7 -8 -2 -8 5 0 3 -8 -6 -17 -8 -10
-19 -30 -26 -45 -6 -16 -16 -28 -22 -28 -5 0 -10 -11 -10 -25 0 -13 -6 -28
-14 -32 -15 -9 -40 -53 -30 -53 3 0 -5 -15 -18 -32 -13 -18 -51 -87 -84 -153
-32 -66 -62 -122 -65 -125 -4 -3 -34 -57 -67 -120 -82 -159 -133 -253 -144
-267 -13 -16 -1 -53 17 -53 17 0 45 27 45 44 0 7 11 33 24 57 13 24 54 103 90
174 37 72 87 168 111 214 25 47 45 91 45 98 0 7 4 13 9 13 8 0 24 41 26 67 0
6 4 15 9 20 5 5 6 2 2 -7 -4 -8 0 -6 8 5 9 11 14 25 11 33 -2 7 -1 11 4 8 5
-3 11 4 15 16 5 22 6 22 19 3 14 -18 16 -18 53 18 44 41 142 106 161 107 28 0
25 -49 -6 -103 -30 -52 -41 -112 -22 -119 4 -1 11 -12 14 -23 5 -16 -5 -26
-53 -54 -64 -37 -243 -207 -298 -285 -18 -25 -31 -46 -28 -46 3 0 -3 -9 -15
-21 -11 -11 -18 -27 -15 -35 3 -8 -1 -14 -9 -14 -9 0 -15 -10 -15 -24 0 -13
-9 -34 -21 -47 l-20 -24 7 25 c3 14 21 57 40 97 19 40 34 75 34 79 0 6 31 56
117 192 19 28 30 52 25 52 -5 0 -14 -10 -21 -22 -18 -34 -32 -56 -79 -126 -23
-35 -42 -66 -42 -69 0 -6 -69 -157 -89 -193 -4 -8 -16 -45 -26 -83 -15 -57
-21 -66 -36 -62 -14 5 -17 2 -13 -9 5 -12 -3 -11 -46 5 -69 26 -239 30 -254 6
-9 -14 -16 -11 -51 21 -23 20 -50 42 -61 48 -17 11 -18 14 -5 35 8 13 25 44
37 69 12 25 34 60 48 79 14 19 26 44 26 54 0 11 12 34 28 52 15 17 35 45 44
61 9 16 47 75 85 131 102 153 125 192 119 201 -2 4 0 14 6 22 8 12 9 11 4 -5
-5 -16 -3 -16 13 5 11 14 18 26 16 28 -1 2 7 14 19 27 12 13 28 36 36 52 8 15
30 49 48 75 18 25 31 51 30 56 -2 6 5 17 14 24 15 12 438 643 498 743 13 22
27 42 30 45 6 4 53 73 90 130 6 8 30 44 55 79 24 35 42 69 38 75 -3 6 -3 8 2
4 4 -4 31 30 61 75 29 45 62 93 72 107 18 23 50 80 55 97 1 5 12 17 24 28 12
11 44 56 71 100 27 44 75 120 108 169 69 104 59 87 131 206 49 82 103 160 110
160 1 0 -22 -47 -52 -105z m-897 -2401 c-4 -50 -3 -55 9 -39 7 11 13 15 13 11
0 -5 7 -3 15 4 8 7 15 8 15 3 0 -11 -37 -43 -51 -43 -6 0 -9 -5 -7 -12 3 -7
-23 -36 -56 -65 -127 -111 -386 -401 -386 -433 0 -5 -2 -10 -4 -10 -2 0 -12
-3 -22 -7 -15 -6 -14 -1 6 28 13 19 36 46 52 60 15 14 28 30 28 35 0 4 -25
-16 -55 -46 -36 -36 -55 -49 -55 -38 0 9 5 20 10 23 6 3 10 23 11 43 0 30 2
33 9 17 8 -19 9 -19 9 -1 1 22 61 123 113 189 21 27 38 53 38 57 0 25 281 280
309 280 2 0 1 -25 -1 -56z m-303 -424 c-3 -5 -10 -10 -16 -10 -5 0 -9 5 -9 10
0 6 7 10 16 10 8 0 12 -4 9 -10z m1198 -196 c25 -50 16 -53 -12 -4 -12 22 -19
40 -14 40 4 0 16 -17 26 -36z m-1183 -241 c22 -46 40 -92 40 -102 0 -15 -37
-51 -53 -51 -2 0 -5 23 -6 52 -2 55 -25 158 -43 193 -10 18 -10 19 6 6 9 -7
34 -51 56 -98z m-2013 -70 c-3 -10 -5 -2 -5 17 0 19 2 27 5 18 2 -10 2 -26 0
-35z m2183 43 c0 -2 -9 -6 -20 -9 -11 -3 -18 -1 -14 4 5 9 34 13 34 5z m-2344
-50 c3 -8 4 -22 2 -31 -2 -12 -7 -7 -15 14 -6 18 -7 31 -2 31 5 0 12 -6 15
-14z m179 -54 c6 -37 -15 -55 -77 -66 -21 -4 -38 -12 -38 -19 0 -7 -4 -6 -10
3 -5 8 -9 24 -9 35 1 17 2 17 6 3 5 -18 43 -26 43 -9 0 5 9 7 20 4 12 -3 20 0
20 6 0 7 5 9 10 6 6 -3 10 -1 10 5 0 6 5 8 10 5 12 -8 13 -3 1 28 -6 14 -7 28
-4 31 9 9 11 4 18 -32z m-1460 -1002 c3 -5 1 -10 -4 -10 -6 0 -11 5 -11 10 0
6 2 10 4 10 3 0 8 -4 11 -10z m35 -51 c0 -6 -4 -7 -10 -4 -5 3 -10 11 -10 16
0 6 5 7 10 4 6 -3 10 -11 10 -16z m5447 -1036 c-4 -22 -16 -46 -29 -56 -13
-10 -51 -45 -85 -79 l-62 -61 -7 39 c-11 58 -31 101 -56 118 -16 11 -18 16 -7
20 97 28 198 52 238 55 10 1 12 -8 8 -36z m-4176 -66 c-10 -9 -11 -8 -5 6 3
10 9 15 12 12 3 -3 0 -11 -7 -18z m-35 -55 c-17 -16 -18 -16 -5 5 7 12 15 20
18 17 3 -2 -3 -12 -13 -22z m-36 -75 c0 -7 -7 -22 -15 -33 -13 -17 -13 -16 -3
14 13 34 18 40 18 19z m-46 -102 c-4 -8 -8 -15 -10 -15 -2 0 -4 7 -4 15 0 8 4
15 10 15 5 0 7 -7 4 -15z m-2510 -31 c3 -8 2 -12 -4 -9 -6 3 -10 10 -10 16 0
14 7 11 14 -7z m2437 -181 c-8 -15 -10 -15 -11 -2 0 17 10 32 18 25 2 -3 -1
-13 -7 -23z m2709 -79 c19 -25 67 -73 105 -107 39 -33 79 -70 91 -81 11 -12
33 -30 48 -41 15 -11 38 -29 50 -40 67 -58 139 -99 268 -155 36 -15 37 -16 24
-41 -7 -14 -19 -49 -26 -77 -8 -35 -18 -53 -31 -57 -10 -4 -19 -11 -19 -16 0
-20 -56 -7 -135 30 -156 73 -249 153 -405 347 -9 10 -22 35 -29 54 -8 19 -23
45 -33 56 -19 21 -19 22 5 75 14 30 28 64 32 77 3 12 9 22 13 22 4 -1 23 -21
42 -46z m-2743 -56 c-3 -8 -6 -5 -6 6 -1 11 2 17 5 13 3 -3 4 -12 1 -19z
m2893 -477 c96 -48 177 -99 183 -115 4 -9 -18 -29 -61 -56 -37 -24 -93 -63
-125 -87 -37 -29 -63 -42 -75 -38 -9 3 -41 25 -71 48 -41 32 -63 60 -92 117
-37 71 -48 112 -31 109 4 -1 21 3 37 10 28 10 30 15 27 46 -2 19 -10 39 -18
45 -15 13 -47 6 -69 -16 -8 -9 -15 -11 -15 -5 0 6 23 24 52 40 l51 29 71 -47
c39 -26 100 -62 136 -80z m-307 -91 c8 -19 24 -46 35 -60 73 -91 102 -120 142
-146 25 -15 55 -38 67 -51 12 -13 34 -23 49 -23 22 0 25 -2 14 -15 -7 -8 -19
-15 -26 -15 -8 0 -22 -4 -32 -9 -129 -68 -312 -125 -435 -136 -65 -6 -79 -4
-117 15 -56 28 -75 52 -98 120 -13 39 -18 79 -17 138 3 93 -2 86 98 141 32 18
79 45 105 61 26 16 70 42 99 59 28 17 55 36 59 42 5 8 14 -6 24 -37 10 -27 24
-65 33 -84z m-1130 -252 c39 -28 60 -82 53 -142 -7 -67 -27 -93 -75 -101 -46
-8 -108 19 -134 59 -35 53 -30 154 9 186 19 17 74 29 99 23 11 -3 32 -14 48
-25z"/>
<path d="M6240 6471 c0 -12 5 -21 10 -21 6 0 10 6 10 14 0 8 -4 18 -10 21 -5
3 -10 -3 -10 -14z"/>
<path d="M6107 6450 c-19 -22 -22 -35 -7 -25 10 6 34 45 28 45 -2 0 -11 -9
-21 -20z"/>
<path d="M6066 6393 c-6 -14 -5 -15 5 -6 7 7 10 15 7 18 -3 3 -9 -2 -12 -12z"/>
<path d="M6215 6258 l-30 -31 32 22 c33 22 51 42 36 40 -4 -1 -21 -15 -38 -31z"/>
<path d="M6127 6184 c-21 -20 -37 -37 -35 -39 2 -2 23 14 46 36 24 21 40 39
35 39 -4 0 -25 -17 -46 -36z"/>
<path d="M6300 2645 c-26 -60 -25 -68 5 -119 45 -76 82 -96 53 -29 -7 15 -12
64 -12 107 -1 96 -17 110 -46 41z"/>
<path d="M6545 1990 c-3 -5 -1 -10 4 -10 6 0 11 5 11 10 0 6 -2 10 -4 10 -3 0
-8 -4 -11 -10z"/>
<path d="M4970 1737 c-34 -15 -39 -24 -33 -61 4 -32 55 -86 81 -86 7 0 22 9
34 20 28 26 19 86 -17 118 -29 25 -31 25 -65 9z"/>
<path d="M5785 5128 c-36 -60 -104 -133 -133 -142 -12 -4 -24 -16 -27 -27 -6
-17 -17 -24 -38 -20 -5 1 -6 -3 -3 -8 4 -6 -13 -21 -37 -35 -51 -30 -107 -44
-107 -27 0 6 4 11 9 11 15 0 141 174 141 194 0 17 -20 0 -60 -51 -24 -32 -48
-59 -52 -61 -4 -2 -8 -8 -8 -13 0 -25 -102 -94 -230 -157 -166 -81 -361 -311
-384 -451 -3 -24 -3 -48 2 -55 5 -6 12 -46 16 -89 4 -44 11 -86 15 -95 5 -10
21 -45 37 -80 68 -151 229 -225 432 -199 63 8 181 54 215 84 27 25 20 37 -9
14 -15 -12 -33 -21 -41 -21 -8 0 -35 -10 -61 -22 -40 -20 -62 -23 -142 -21
-60 1 -109 7 -132 17 -21 9 -50 16 -65 16 -19 0 -43 14 -75 45 l-47 44 49 -3
c97 -7 193 25 242 80 29 33 57 98 76 173 17 67 18 81 5 150 -7 42 -19 90 -27
106 -35 79 -113 134 -188 135 -26 0 -36 4 -32 13 7 18 128 97 208 136 64 31
75 33 134 28 82 -8 121 -34 158 -106 16 -30 39 -70 52 -89 12 -19 22 -45 22
-58 0 -12 4 -25 9 -28 5 -3 7 -15 4 -26 -3 -11 1 -27 8 -36 7 -9 12 -32 11
-52 -3 -36 20 -84 33 -70 4 4 3 26 -3 51 -7 33 -6 49 4 62 8 10 12 29 10 41
-3 17 1 24 22 29 74 17 164 48 177 62 17 17 38 53 31 53 -3 0 -28 -13 -56 -30
-37 -22 -69 -32 -120 -36 l-70 -7 0 36 c0 35 1 36 68 58 81 26 174 81 224 132
49 49 49 70 1 23 -21 -20 -48 -39 -60 -42 -13 -4 -23 -11 -23 -17 0 -6 -3 -7
-6 -4 -4 4 -19 -2 -34 -13 -15 -11 -30 -17 -34 -13 -3 3 -6 2 -6 -4 0 -6 -12
-13 -27 -16 -16 -3 -46 -10 -68 -16 -34 -9 -42 -8 -52 6 -7 9 -13 19 -13 22 1
8 80 58 117 73 50 22 202 157 192 171 -2 3 7 17 20 31 14 14 20 26 15 26 -5 0
-15 -8 -22 -17 -7 -10 -16 -22 -20 -28 -4 -5 -16 -15 -27 -21 -11 -6 -24 -20
-30 -32 -5 -12 -13 -22 -17 -22 -13 0 -98 -63 -98 -73 0 -4 -4 -5 -10 -2 -5 3
-10 1 -10 -4 0 -6 -3 -10 -7 -9 -5 1 -29 -8 -55 -20 -54 -25 -88 -28 -88 -8 0
7 -7 19 -15 26 -8 7 -15 17 -15 23 0 6 3 8 6 4 7 -7 55 16 86 41 79 65 235
231 240 255 7 37 -3 34 -30 -11 -13 -21 -36 -46 -52 -57 -16 -11 -31 -28 -34
-38 -2 -11 -9 -16 -14 -13 -5 3 -17 -3 -27 -14 -10 -11 -15 -20 -11 -20 4 0 2
-9 -4 -21 -6 -11 -17 -18 -23 -16 -7 2 -42 -16 -79 -39 -71 -46 -119 -60 -155
-47 -20 7 -11 18 97 116 114 102 166 169 158 202 -2 8 -16 -9 -33 -37z m-497
-740 c7 -7 12 -21 12 -33 0 -12 -5 -26 -12 -33 -7 -7 -21 -12 -33 -12 -12 0
-26 5 -33 12 -7 7 -12 21 -12 33 0 12 5 26 12 33 7 7 21 12 33 12 12 0 26 -5
33 -12z"/>
<path d="M5751 4304 c0 -11 3 -14 6 -6 3 7 2 16 -1 19 -3 4 -6 -2 -5 -13z"/>
<path d="M3568 4278 c-10 -10 -18 -22 -18 -27 0 -5 -6 -12 -12 -14 -7 -3 -8
-6 -2 -6 10 -1 59 58 52 63 -1 2 -11 -6 -20 -16z"/>
<path d="M4208 4221 c-33 -21 -49 -40 -59 -68 -36 -108 26 -148 127 -80 62 41
84 94 60 145 -13 27 -21 32 -49 32 -19 0 -52 -12 -79 -29z"/>
<path d="M3518 4209 c-9 -5 -15 -16 -12 -23 3 -7 -2 -16 -10 -19 -10 -4 -13
-13 -9 -23 5 -13 3 -15 -7 -9 -9 5 -11 4 -6 -3 11 -18 14 -16 41 38 14 28 24
50 23 50 -2 0 -11 -5 -20 -11z"/>
<path d="M3460 4091 c-6 -12 -7 -21 -1 -21 10 0 24 30 17 37 -2 3 -9 -5 -16
-16z"/>
<path d="M5609 3958 c-12 -23 -12 -23 10 -4 23 21 26 26 11 26 -5 0 -15 -10
-21 -22z"/>
<path d="M5956 3933 c-6 -14 -5 -15 5 -6 7 7 10 15 7 18 -3 3 -9 -2 -12 -12z"/>
<path d="M3362 3892 c-11 -25 -11 -25 4 -10 9 9 15 21 13 27 -2 6 -10 -2 -17
-17z"/>
<path d="M4635 3877 c-21 -18 -27 -33 -30 -76 -3 -45 -1 -56 20 -76 19 -20 30
-23 62 -18 46 7 119 46 133 73 13 25 12 61 -3 80 -36 44 -139 54 -182 17z"/>
<path d="M4218 3804 c-3 -3 -26 -6 -50 -8 -62 -3 -109 -33 -136 -86 -19 -38
-23 -57 -20 -121 3 -70 5 -77 39 -113 31 -33 42 -38 96 -43 94 -9 177 27 224
95 17 26 24 52 27 101 3 62 1 68 -28 104 -45 53 -130 93 -152 71z"/>
<path d="M3297 3741 c-4 -17 -3 -21 5 -13 5 5 8 16 6 23 -3 8 -7 3 -11 -10z"/>
<path d="M5827 3736 c-21 -13 -45 -34 -54 -47 -9 -13 -20 -26 -24 -29 -13 -9
-18 -85 -8 -122 11 -44 33 -58 87 -58 75 0 132 36 162 102 52 117 -56 219
-163 154z"/>
<path d="M6124 3715 c-14 -34 28 -105 62 -105 16 0 54 57 54 82 0 23 -30 38
-75 38 -22 0 -38 -6 -41 -15z"/>
<path d="M3276 3685 c-9 -26 -7 -32 5 -12 6 10 9 21 6 23 -2 3 -7 -2 -11 -11z"/>
<path d="M2453 3617 c-63 -55 -90 -142 -72 -227 13 -60 33 -74 96 -67 92 10
183 100 183 181 0 83 -39 125 -124 136 -45 6 -52 4 -83 -23z"/>
<path d="M3256 3623 c-6 -14 -5 -15 5 -6 7 7 10 15 7 18 -3 3 -9 -2 -12 -12z"/>
<path d="M3227 3558 c-9 -23 -15 -43 -13 -45 2 -2 11 15 20 38 9 23 15 43 13
45 -2 2 -11 -15 -20 -38z"/>
<path d="M6237 3516 c18 -25 53 -31 53 -10 0 12 -21 24 -53 31 -17 3 -17 2 0
-21z m28 4 c3 -5 1 -10 -4 -10 -6 0 -11 5 -11 10 0 6 2 10 4 10 3 0 8 -4 11
-10z"/>
<path d="M5976 3449 c-23 -18 -27 -28 -24 -63 3 -34 7 -42 27 -44 36 -6 69 6
81 29 16 30 3 74 -26 88 -31 14 -27 15 -58 -10z"/>
<path d="M3172 3413 c-6 -20 -7 -32 -2 -27 10 10 25 64 18 64 -3 0 -10 -16
-16 -37z"/>
<path d="M2585 3220 c-16 -4 -24 -8 -17 -9 13 -1 72 -54 72 -64 0 -3 -15 -5
-33 -5 -59 0 -173 -79 -227 -157 -66 -96 -74 -232 -22 -365 14 -36 69 -90 108
-106 94 -39 244 -22 373 43 88 45 107 71 127 176 24 124 -7 236 -96 353 -30
40 -140 122 -169 128 -64 12 -87 14 -116 6z"/>
<path d="M6891 3093 c-28 -11 -104 -113 -85 -113 4 0 1 -7 -6 -15 -14 -17 -15
-125 -1 -172 5 -17 7 -34 4 -37 -3 -3 -1 -12 5 -19 7 -8 10 -17 7 -20 -3 -4
-2 -5 2 -2 3 3 17 -10 30 -27 38 -52 99 -88 149 -88 43 0 114 26 114 42 0 15
-32 22 -50 10 -10 -6 -42 -11 -73 -11 -48 0 -60 4 -93 35 l-39 34 25 17 c53
37 100 106 80 118 -6 3 -10 14 -10 23 0 10 -14 34 -31 55 -24 30 -37 37 -65
37 l-35 0 17 33 c9 17 25 42 36 54 19 20 23 20 42 7 19 -12 25 -12 41 0 39 29
-11 60 -64 39z"/>
<path d="M6681 3036 c-12 -14 -11 -160 2 -172 3 -3 3 -12 0 -20 -8 -22 17
-112 34 -118 23 -9 25 -3 9 41 -8 22 -17 73 -20 113 -4 41 -9 76 -11 78 -2 3
-1 12 4 21 18 35 22 71 7 71 -7 0 -19 -6 -25 -14z"/>
<path d="M5768 3003 c-49 -41 -66 -63 -81 -108 -26 -75 6 -91 40 -21 12 24 44
63 71 87 50 42 58 69 22 69 -10 0 -33 -12 -52 -27z"/>
<path d="M2078 2380 c-20 -11 -39 -28 -42 -38 -4 -10 -22 -36 -41 -58 -28 -32
-35 -48 -36 -84 -4 -166 26 -210 140 -210 76 1 126 16 176 54 46 35 66 76 72
145 7 70 -23 147 -69 181 -45 33 -149 38 -200 10z"/>
<path d="M2645 2130 c-22 -25 -19 -102 5 -133 27 -34 61 -40 110 -21 77 31 94
131 27 159 -45 19 -123 16 -142 -5z"/>
<path d="M1358 1530 c-41 -12 -53 -21 -37 -31 10 -6 10 -13 1 -34 -13 -29 -16
-84 -4 -101 32 -49 122 27 122 104 0 50 -33 75 -82 62z"/>
<path d="M2523 1480 c-3 -12 -14 -20 -26 -20 -33 0 -103 -38 -143 -78 -67 -67
-102 -184 -81 -274 6 -27 14 -48 18 -48 3 0 9 -9 12 -20 3 -12 24 -29 52 -41
41 -18 59 -20 122 -14 65 6 79 11 121 44 63 51 69 58 92 131 41 127 20 220
-65 299 -50 46 -93 55 -102 21z"/>
<path d="M1164 1242 c-12 -1 -36 -15 -53 -30 -29 -24 -34 -35 -41 -98 -4 -38
-12 -80 -19 -91 -14 -28 -13 -85 2 -143 26 -96 68 -118 141 -75 83 48 134 154
122 253 -6 53 -43 138 -68 160 -21 17 -60 28 -84 24z"/>
<path d="M1498 1237 c-19 -15 -38 -70 -38 -110 0 -45 21 -105 38 -112 22 -8
64 25 84 66 24 49 4 126 -39 151 -24 14 -32 15 -45 5z"/>
</g>
</svg>
